{"title":"Closed Circuit 2013 1080p BrRip x264 6CH Pimp4003","uid":9385336,"size":4644531490,"categoryP":"video","categoryS":"hd___movies","magnet":"?xt=urn:btih:a8f23839463058ddd09d917614ac45ac9732df26&amp;dn=Closed+Circuit+2013+1080p+BrRip+x264+6CH+Pimp4003&amp;tr=udp%3A%2F%2Ftracker.openbittorrent.com%3A80&amp;tr=udp%3A%2F%2Fopen.demonii.com%3A1337&amp;tr=udp%3A%2F%2Ftracker.coppersurfer.tk%3A6969&amp;tr=udp%3A%2F%2Fexodus.desync.com%3A6969","seeders":1,"leechers":0,"uploader":"shawnmurthy","files":-1,"time":1387794232,"description":"Get all Pimp4003 newest releases first at \n\n[url]http://www.pimp4003.se[/url] OR \n\nWWW.PIMP4003.NET with VIP downloads speed\n\nRegister here and you can chat, request movies, view upcoming uploads and much more\n\nUPLOAD UNLIMITED IMAGES AND UP TO 10MB IN FILE SIZES FOR FREE....\n &lt;a href=&quot;\nhttp://www.piczhub.com&quot; rel=&quot;nofollow&quot; target=&quot;_NEW&quot;&gt;\nhttp://www.piczhub.com&lt;/a&gt;\n\n &lt;a href=&quot;\nhttp://www.piczhub.com/photos/20131204138615861113650.gif&quot; rel=&quot;nofollow&quot; target=&quot;_NEW&quot;&gt;\nhttp://www.piczhub.com/photos/20131204138615861113650.gif&lt;/a&gt; &lt;a href=&quot;\nhttp://www.piczhub.com/photos/20131204138615861100622.png&quot; rel=&quot;nofollow&quot; target=&quot;_NEW&quot;&gt;\nhttp://www.piczhub.com/photos/20131204138615861100622.png&lt;/a&gt; &lt;a href=&quot;\nhttp://www.piczhub.com/photos/20131219138744296195028.jpg&quot; rel=&quot;nofollow&quot; target=&quot;_NEW&quot;&gt;\nhttp://www.piczhub.com/photos/20131219138744296195028.jpg&lt;/a&gt; &lt;a href=&quot;\nhttp://www.piczhub.com/photos/20131223138778962117639.jpg&quot; rel=&quot;nofollow&quot; target=&quot;_NEW&quot;&gt;\nhttp://www.piczhub.com/photos/20131223138778962117639.jpg&lt;/a&gt; &lt;a href=&quot;\nhttp://www.piczhub.com/photos/20131223138778750194448.png&quot; rel=&quot;nofollow&quot; target=&quot;_NEW&quot;&gt;\nhttp://www.piczhub.com/photos/20131223138778750194448.png&lt;/a&gt; &lt;a href=&quot;\nhttp://www.piczhub.com/photos/20131223138778750175986.png&quot; rel=&quot;nofollow&quot; target=&quot;_NEW&quot;&gt;\nhttp://www.piczhub.com/photos/20131223138778750175986.png&lt;/a&gt; &lt;a href=&quot;\nhttp://www.piczhub.com/photos/20131223138778750114650.png&quot; rel=&quot;nofollow&quot; target=&quot;_NEW&quot;&gt;\nhttp://www.piczhub.com/photos/20131223138778750114650.png&lt;/a&gt; &lt;a href=&quot;\nhttp://www.piczhub.com/photos/20131223138778751115789.png&quot; rel=&quot;nofollow&quot; target=&quot;_NEW&quot;&gt;\nhttp://www.piczhub.com/photos/20131223138778751115789.png&lt;/a&gt;\n\nPIMP4003 AND PIMPRG PRESENTS\n\nClosed Circuit 2013 1080p BrRip x264 6CH Pimp4003\n &lt;a href=&quot;\nhttp://www.imdb.com/title/tt2218003/&quot; rel=&quot;nofollow&quot; target=&quot;_NEW&quot;&gt;\nhttp://www.imdb.com/title/tt2218003/&lt;/a&gt;\n\nA high-profile terrorism case unexpectedly binds together two ex-lovers on the defense team - testing the limits of their loyalties and placing their lives in jeopardy.\n\nDirector: John Crowley\nWriter: Steven Knight (screenplay)\nStars: Eric Bana, Rebecca Hall, Jim Broadbent | See full cast and crew Â»\n\nGenre: Crime | Comedy\nFile Size: 4.33GB\nSource: AMIABLE \nLanguage: ENGLISH\n\nVideo \nID : 2 \nFormat : AVC \nFormat/Info : Advanced Video Codec \nFormat profile : &lt;a class=&quot;__cf_email__&quot; href=&quot;/cdn-cgi/l/email-protection&quot; data-cfemail=&quot;8bc9eaf8eee7e2e5eecbc7bea5bb&quot;&gt;[email&amp;#160;protected]&lt;/a&gt;&lt;script cf-hash='f9e31' type=&quot;text/javascript&quot;&gt;\n/* &lt;![CDATA[ */!function(){try{var t=&quot;currentScript&quot;in document?document.currentScript:function(){for(var t=document.getElementsByTagName(&quot;script&quot;),e=t.length;e--;)if(t[e].getAttribute(&quot;cf-hash&quot;))return t[e]}();if(t&amp;&amp;t.previousSibling){var e,r,n,i,c=t.previousSibling,a=c.getAttribute(&quot;data-cfemail&quot;);if(a){for(e=&quot;&quot;,r=parseInt(a.substr(0,2),16),n=2;a.length-n;n+=2)i=parseInt(a.substr(n,2),16)^r,e+=String.fromCharCode(i);e=document.createTextNode(e),c.parentNode.replaceChild(e,c)}}}catch(u){}}();/* ]]&gt; */&lt;/script&gt; \nFormat settings, CABAC : No \nFormat settings, ReFrames : 1 frame \nMuxing mode : Container profile=&lt;a class=&quot;__cf_email__&quot; href=&quot;/cdn-cgi/l/email-protection&quot; data-cfemail=&quot;1456756771787d7a7154203a25&quot;&gt;[email&amp;#160;protected]&lt;/a&gt;&lt;script cf-hash='f9e31' type=&quot;text/javascript&quot;&gt;\n/* &lt;![CDATA[ */!function(){try{var t=&quot;currentScript&quot;in document?document.currentScript:function(){for(var t=document.getElementsByTagName(&quot;script&quot;),e=t.length;e--;)if(t[e].getAttribute(&quot;cf-hash&quot;))return t[e]}();if(t&amp;&amp;t.previousSibling){var e,r,n,i,c=t.previousSibling,a=c.getAttribute(&quot;data-cfemail&quot;);if(a){for(e=&quot;&quot;,r=parseInt(a.substr(0,2),16),n=2;a.length-n;n+=2)i=parseInt(a.substr(n,2),16)^r,e+=String.fromCharCode(i);e=document.createTextNode(e),c.parentNode.replaceChild(e,c)}}}catch(u){}}();/* ]]&gt; */&lt;/script&gt; \nCodec ID : avc1 \nCodec ID/Info : Advanced Video Coding \nDuration : 1h 36mn \nBit rate : 6 251 Kbps \nWidth : 1 920 pixels \nHeight : 1 080 pixels \nDisplay aspect ratio : 16:9 \nFrame rate mode : Constant \nFrame rate : 23.976 fps \nOriginal frame rate : 23.000 fps \nColor space : YUV \nChroma subsampling : 4:2:0 \nBit depth : 8 bits \nScan type : Progressive \nBits/(Pixel*Frame) : 0.126 \nStream size : 4.19 GiB (97%) \nWriting library : Ã„ \nLanguage : English \n\nAudio \nID : 1 \nFormat : AAC \nFormat/Info : Advanced Audio Codec \nFormat profile : LC \nCodec ID : 40 \nDuration : 1h 36mn \nBit rate mode : Constant \nBit rate : 192 Kbps \nChannel(s) : 6 channels \nChannel positions : Front: L C R, Side: L R, LFE \nSampling rate : 48.0 KHz \nCompression mode : Lossy \nStream size : 132 MiB (3%) \nLanguage : English \n\n\nALWAYS ON SEED BOX\n\nGREETZ TO PIMPRG AND ALL OTHER GROUPS\n\nPimp4003 | SUJAIDR | PIMPRG | JUNAIDZIA | RICKYKT | LOKKIODDIN | SCENEDL | Ali1997 | 594Mgnav | AND ALL OTHER P2P AND SCENE GROUPS\n","torrent":{"xt":"urn:btih:a8f23839463058ddd09d917614ac45ac9732df26","amp;dn":"Closed+Circuit+2013+1080p+BrRip+x264+6CH+Pimp4003","amp;tr":["udp%3A%2F%2Ftracker.openbittorrent.com%3A80","udp%3A%2F%2Fopen.demonii.com%3A1337","udp%3A%2F%2Ftracker.coppersurfer.tk%3A6969","udp%3A%2F%2Fexodus.desync.com%3A6969"],"infoHash":"a8f23839463058ddd09d917614ac45ac9732df26","infoHashBuffer":{"type":"Buffer","data":[168,242,56,57,70,48,88,221,208,157,145,118,20,172,69,172,151,50,223,38]},"announce":[],"urlList":[]}}